<svg width="21" height="22" viewBox="0 0 21 22" fill="none" xmlns="http://www.w3.org/2000/svg">
<path d="M10.6703 0.300201C13.5726 0.300282 15.6461 1.42085 16.7797 2.24649C17.5363 2.79763 17.5019 3.82415 16.9017 4.44962C16.2281 5.15158 15.1215 5.12429 14.3597 4.65372C13.5542 4.15615 12.333 3.63028 10.7699 3.63028C6.9367 3.63032 3.86951 6.66463 3.86951 10.6C3.86951 14.6773 7.08872 17.5697 10.7601 17.5697C13.1938 17.5697 15.6752 16.4666 16.6019 14.0219C16.7256 13.6955 16.6497 13.3843 16.4467 13.144C16.239 12.8983 15.8981 12.7299 15.515 12.7299H12.1146C11.1952 12.7297 10.4496 11.9843 10.4496 11.0648C10.4497 10.1455 11.1953 9.4 12.1146 9.39981H18.6429C19.5241 9.39987 20.3176 10.0235 20.3578 10.9555C20.3651 11.1256 20.3695 11.3109 20.3695 11.5102C20.3695 14.2948 19.3669 16.6474 17.6605 18.3031C15.9551 19.958 13.5643 20.8998 10.8197 20.8998C4.5527 20.8997 0.300171 15.8039 0.300171 10.6C0.300171 5.24093 4.81807 0.300201 10.6703 0.300201Z" fill="#71916B" stroke="#71916B" stroke-width="0.6"/>
</svg>
