<svg width="177" height="84" viewBox="0 0 177 84" fill="none" xmlns="http://www.w3.org/2000/svg">
<rect width="12.3213" height="58.5621" rx="6.16064" transform="matrix(0.724738 -0.689024 0.648031 0.761613 30 38.4897)" fill="#ABF39D"/>
<circle cx="35" cy="35" r="35" fill="#ABF39D"/>
<path d="M32.0584 5.14419C48.547 3.5196 63.2305 15.5697 64.8553 32.0583C66.4799 48.5467 54.4307 63.2302 37.9422 64.8551C21.4536 66.4799 6.76922 54.4306 5.14434 37.942C3.51957 21.4534 15.5697 6.76896 32.0584 5.14419Z" fill="#327D54"/>
<g filter="url(#filter0_d_131_169)">
<path d="M48.3516 28.4688C48.3516 29.8594 48.0859 31.1719 47.5547 32.4062C47.0391 33.625 46.3203 34.6953 45.3984 35.6172C44.4922 36.5234 43.4219 37.2422 42.1875 37.7734C40.9688 38.3047 39.6641 38.5703 38.2734 38.5703C37.7891 38.5703 37.3594 38.6562 36.9844 38.8281C36.625 39 36.3203 39.2422 36.0703 39.5547C35.8359 39.8516 35.6562 40.2031 35.5312 40.6094C35.4062 41.0156 35.3438 41.4531 35.3438 41.9219V43.7031H28.6406V41.8281C28.6562 40.4531 28.8984 39.1562 29.3672 37.9375C29.8516 36.7188 30.5156 35.6641 31.3594 34.7734C32.2188 33.8672 33.2344 33.1562 34.4062 32.6406C35.5781 32.1094 36.8672 31.8438 38.2734 31.8438C38.7422 31.8438 39.1797 31.7578 39.5859 31.5859C39.9922 31.4141 40.3438 31.1797 40.6406 30.8828C40.9531 30.5703 41.1953 30.2109 41.3672 29.8047C41.5547 29.3828 41.6484 28.9375 41.6484 28.4688C41.6484 28 41.5547 27.5625 41.3672 27.1562C41.1953 26.75 40.9531 26.3984 40.6406 26.1016C40.3438 25.7891 39.9922 25.5469 39.5859 25.375C39.1797 25.2031 38.7422 25.1172 38.2734 25.1172H22.875V18.3906H38.2734C39.6641 18.3906 40.9688 18.6562 42.1875 19.1875C43.4219 19.7188 44.4922 20.4453 45.3984 21.3672C46.3203 22.2734 47.0391 23.3359 47.5547 24.5547C48.0859 25.7734 48.3516 27.0781 48.3516 28.4688ZM36.0234 49.6094C36.0234 50.1719 35.9141 50.7031 35.6953 51.2031C35.4922 51.6875 35.2109 52.1094 34.8516 52.4688C34.4922 52.8281 34.0703 53.1094 33.5859 53.3125C33.1016 53.5312 32.5859 53.6406 32.0391 53.6406C31.4922 53.6406 30.9688 53.5312 30.4688 53.3125C29.9844 53.1094 29.5547 52.8281 29.1797 52.4688C28.8203 52.1094 28.5312 51.6875 28.3125 51.2031C28.1094 50.7031 28.0078 50.1719 28.0078 49.6094C28.0078 49.0625 28.1094 48.5469 28.3125 48.0625C28.5312 47.5781 28.8203 47.1562 29.1797 46.7969C29.5547 46.4375 29.9844 46.1562 30.4688 45.9531C30.9688 45.7344 31.4922 45.625 32.0391 45.625C32.5859 45.625 33.1016 45.7344 33.5859 45.9531C34.0703 46.1562 34.4922 46.4375 34.8516 46.7969C35.2109 47.1562 35.4922 47.5781 35.6953 48.0625C35.9141 48.5469 36.0234 49.0625 36.0234 49.6094Z" fill="white"/>
</g>
<path d="M89.4023 62.5586C88.9727 62.9492 88.5104 63.3203 88.0156 63.6719C87.5339 64.0104 87.026 64.3099 86.4922 64.5703C85.9583 64.8177 85.4049 65.013 84.832 65.1562C84.2721 65.3125 83.6992 65.3906 83.1133 65.3906C81.8242 65.3906 80.6133 65.1628 79.4805 64.707C78.3477 64.2513 77.3516 63.6068 76.4922 62.7734C75.6458 61.9271 74.9753 60.9049 74.4805 59.707C73.9987 58.4961 73.7578 57.1419 73.7578 55.6445V44.082H79.0703V55.6445C79.0703 56.3477 79.1745 56.9792 79.3828 57.5391C79.6042 58.0859 79.8971 58.5482 80.2617 58.9258C80.6263 59.3034 81.0495 59.5898 81.5312 59.7852C82.026 59.9805 82.5534 60.0781 83.1133 60.0781C83.6602 60.0781 84.1745 59.9544 84.6562 59.707C85.151 59.4466 85.5807 59.1081 85.9453 58.6914C86.3099 58.2747 86.5964 57.806 86.8047 57.2852C87.013 56.7513 87.1172 56.2044 87.1172 55.6445V44.082H92.4492V65H91.1602L89.4023 62.5586ZM104.852 59.8828C105.06 59.9479 105.268 59.9935 105.477 60.0195C105.685 60.0326 105.893 60.0391 106.102 60.0391C106.622 60.0391 107.124 59.9674 107.605 59.8242C108.087 59.681 108.536 59.4792 108.953 59.2188C109.383 58.9453 109.76 58.6198 110.086 58.2422C110.424 57.8516 110.698 57.4219 110.906 56.9531L114.812 60.8789C114.318 61.582 113.745 62.2135 113.094 62.7734C112.456 63.3333 111.759 63.8086 111.004 64.1992C110.262 64.5898 109.474 64.8828 108.641 65.0781C107.82 65.2865 106.974 65.3906 106.102 65.3906C104.63 65.3906 103.243 65.1172 101.941 64.5703C100.652 64.0234 99.5195 63.2617 98.543 62.2852C97.5794 61.3086 96.8177 60.1497 96.2578 58.8086C95.6979 57.4544 95.418 55.9701 95.418 54.3555C95.418 52.7018 95.6979 51.1914 96.2578 49.8242C96.8177 48.457 97.5794 47.2917 98.543 46.3281C99.5195 45.3646 100.652 44.6159 101.941 44.082C103.243 43.5482 104.63 43.2812 106.102 43.2812C106.974 43.2812 107.827 43.3854 108.66 43.5938C109.493 43.8021 110.281 44.1016 111.023 44.4922C111.779 44.8828 112.482 45.3646 113.133 45.9375C113.784 46.4974 114.357 47.1289 114.852 47.832L104.852 59.8828ZM107.586 48.8867C107.339 48.7956 107.091 48.737 106.844 48.7109C106.609 48.6849 106.362 48.6719 106.102 48.6719C105.372 48.6719 104.682 48.8086 104.031 49.082C103.393 49.3424 102.833 49.7201 102.352 50.2148C101.883 50.7096 101.512 51.3086 101.238 52.0117C100.965 52.7018 100.828 53.4831 100.828 54.3555C100.828 54.5508 100.835 54.7721 100.848 55.0195C100.874 55.2669 100.906 55.5208 100.945 55.7812C100.997 56.0286 101.056 56.2695 101.121 56.5039C101.186 56.7383 101.271 56.9466 101.375 57.1289L107.586 48.8867ZM129.031 65H116.844V59.6875H129.031C129.396 59.6875 129.708 59.5573 129.969 59.2969C130.229 59.0365 130.359 58.724 130.359 58.3594C130.359 57.9818 130.229 57.7344 129.969 57.6172C129.708 57.5 129.396 57.4414 129.031 57.4414H123.484C122.56 57.4414 121.694 57.2656 120.887 56.9141C120.079 56.5625 119.376 56.0872 118.777 55.4883C118.178 54.8763 117.703 54.1667 117.352 53.3594C117.013 52.5521 116.844 51.6862 116.844 50.7617C116.844 49.8372 117.013 48.9714 117.352 48.1641C117.703 47.3568 118.178 46.6536 118.777 46.0547C119.376 45.4557 120.079 44.987 120.887 44.6484C121.694 44.2969 122.56 44.1211 123.484 44.1211H134.285V49.4336H123.484C123.12 49.4336 122.807 49.5638 122.547 49.8242C122.286 50.0846 122.156 50.3971 122.156 50.7617C122.156 51.1393 122.286 51.4648 122.547 51.7383C122.807 51.9987 123.12 52.1289 123.484 52.1289H129.031C129.943 52.1289 130.802 52.2852 131.609 52.5977C132.417 52.8971 133.12 53.3203 133.719 53.8672C134.318 54.4141 134.793 55.0716 135.145 55.8398C135.496 56.6081 135.672 57.4479 135.672 58.3594C135.672 59.2839 135.496 60.1497 135.145 60.957C134.793 61.7513 134.318 62.4544 133.719 63.0664C133.12 63.6654 132.417 64.1406 131.609 64.4922C130.802 64.8307 129.943 65 129.031 65ZM149.012 65C147.723 65 146.512 64.7591 145.379 64.2773C144.246 63.7826 143.25 63.112 142.391 62.2656C141.544 61.4062 140.874 60.4102 140.379 59.2773C139.897 58.1445 139.656 56.9336 139.656 55.6445V49.4336H137.059V44.1211H139.656V35.7617H144.969V44.1211H153.055V49.4336H144.969V55.6445C144.969 56.2044 145.073 56.7318 145.281 57.2266C145.49 57.7083 145.776 58.1315 146.141 58.4961C146.505 58.8607 146.935 59.1536 147.43 59.375C147.924 59.5833 148.452 59.6875 149.012 59.6875H153.055V65H149.012ZM161.102 72.9688V67.5977L164.07 67.6367C164.591 67.6367 165.092 67.5521 165.574 67.3828C166.056 67.2135 166.499 66.9792 166.902 66.6797C167.319 66.3802 167.684 66.0221 167.996 65.6055C168.309 65.2018 168.562 64.7591 168.758 64.2773C168.172 64.5247 167.573 64.7721 166.961 65.0195C166.362 65.2669 165.757 65.3906 165.145 65.3906C163.855 65.3906 162.645 65.1628 161.512 64.707C160.379 64.2513 159.383 63.6068 158.523 62.7734C157.677 61.9271 157.007 60.9049 156.512 59.707C156.03 58.4961 155.789 57.1419 155.789 55.6445V44.082H161.102V55.6445C161.102 56.3867 161.206 57.0378 161.414 57.5977C161.635 58.1445 161.928 58.6068 162.293 58.9844C162.658 59.349 163.081 59.6224 163.562 59.8047C164.057 59.987 164.585 60.0781 165.145 60.0781C165.691 60.0781 166.206 59.9544 166.688 59.707C167.182 59.4466 167.612 59.1081 167.977 58.6914C168.341 58.2747 168.628 57.806 168.836 57.2852C169.044 56.7513 169.148 56.2044 169.148 55.6445V44.082H174.52V62.3633C174.507 63.8346 174.22 65.2148 173.66 66.5039C173.1 67.793 172.332 68.9193 171.355 69.8828C170.392 70.8464 169.266 71.6081 167.977 72.168C166.688 72.7279 165.307 73.0078 163.836 73.0078L161.102 72.9688Z" fill="white"/>
<defs>
<filter id="filter0_d_131_169" x="17.875" y="17.3906" width="35.4766" height="45.25" filterUnits="userSpaceOnUse" color-interpolation-filters="sRGB">
<feFlood flood-opacity="0" result="BackgroundImageFix"/>
<feColorMatrix in="SourceAlpha" type="matrix" values="0 0 0 0 0 0 0 0 0 0 0 0 0 0 0 0 0 0 127 0" result="hardAlpha"/>
<feOffset dy="4"/>
<feGaussianBlur stdDeviation="2.5"/>
<feComposite in2="hardAlpha" operator="out"/>
<feColorMatrix type="matrix" values="0 0 0 0 0 0 0 0 0 0 0 0 0 0 0 0 0 0 0.25 0"/>
<feBlend mode="normal" in2="BackgroundImageFix" result="effect1_dropShadow_131_169"/>
<feBlend mode="normal" in="SourceGraphic" in2="effect1_dropShadow_131_169" result="shape"/>
</filter>
</defs>
</svg>
